<svg xmlns="http://www.w3.org/2000/svg" width="10" height="10" fill="none"><path fill="#AC43FE" d="M5.435 10h1.081c.651 0 .977 0 1.258-.111.248-.099.471-.259.65-.467.202-.236.322-.556.564-1.197L9.564 6.7c.326-.865.489-1.297.42-1.644a1.18 1.18 0 0 0-.472-.741c-.279-.196-.718-.196-1.596-.196h-.928c-.291 0-.437 0-.51-.058a.288.288 0 0 1-.111-.212c-.008-.097.072-.234.232-.508.472-.808.885-1.738 1.066-2.548C7.762.362 7.426 0 7.01 0a.79.79 0 0 0-.588.282c-.552.629-1.063.958-1.571 1.285-.505.325-1.006.647-1.54 1.259-.147.168-.22.252-.314.424-.07.127-.15.347-.181.49-.042.193-.042.36-.042.694v2.742c0 .989 0 1.483.181 1.86.16.332.414.602.727.772.356.192.822.192 1.754.192ZM1.11 2.941C.496 2.941 0 3.468 0 4.118v4.706C0 9.474.497 10 1.11 10c.612 0 1.108-.527 1.108-1.176V4.118c0-.65-.496-1.177-1.109-1.177Z"/></svg>