<svg width="96" height="16" viewBox="0 0 96 16" fill="none" xmlns="http://www.w3.org/2000/svg">
<g id="Group 4">
<path id="Vector" fill-rule="evenodd" clip-rule="evenodd" d="M68.3308 1.23009L70.1108 5.65009L74.6708 6.06109C74.9868 6.09009 75.1158 6.50309 74.8758 6.72109L71.4178 9.86309L72.4538 14.5371C72.5258 14.8611 72.1898 15.1171 71.9188 14.9441L67.9998 12.4671L64.0818 14.9441C63.8098 15.1161 63.4748 14.8611 63.5468 14.5371L64.5828 9.86309L61.1238 6.72109C60.8838 6.50309 61.0118 6.08909 61.3288 6.06109L65.8888 5.65009L67.6688 1.23009C67.6938 1.16249 67.739 1.10418 67.7981 1.063C67.8573 1.02183 67.9277 0.999756 67.9998 0.999756C68.0719 0.999756 68.1422 1.02183 68.2014 1.063C68.2606 1.10418 68.3057 1.16249 68.3308 1.23009ZM8.33077 1.23009L10.1108 5.65009L14.6708 6.06109C14.9868 6.09009 15.1158 6.50309 14.8758 6.72109L11.4178 9.86309L12.4538 14.5371C12.5258 14.8611 12.1898 15.1171 11.9188 14.9441L7.99977 12.4671L4.08177 14.9441C3.80977 15.1161 3.47477 14.8611 3.54677 14.5371L4.58277 9.86309L1.12477 6.72109C0.884773 6.50309 1.01177 6.08909 1.32877 6.06109L5.88877 5.65009L7.66877 1.23009C7.69383 1.16249 7.73897 1.10418 7.79815 1.063C7.85732 1.02183 7.92768 0.999756 7.99977 0.999756C8.07186 0.999756 8.14222 1.02183 8.2014 1.063C8.26057 1.10418 8.30572 1.16249 8.33077 1.23009ZM28.3308 1.23009L30.1108 5.65009L34.6708 6.06109C34.9868 6.09009 35.1158 6.50309 34.8758 6.72109L31.4178 9.86309L32.4538 14.5371C32.5258 14.8611 32.1898 15.1171 31.9188 14.9441L27.9998 12.4671L24.0818 14.9441C23.8098 15.1161 23.4748 14.8611 23.5468 14.5371L24.5828 9.86309L21.1238 6.72109C20.8838 6.50309 21.0118 6.08909 21.3288 6.06109L25.8888 5.65009L27.6688 1.23009C27.6938 1.16249 27.739 1.10418 27.7981 1.063C27.8573 1.02183 27.9277 0.999756 27.9998 0.999756C28.0719 0.999756 28.1422 1.02183 28.2014 1.063C28.2606 1.10418 28.3057 1.16249 28.3308 1.23009ZM48.3308 1.23009L50.1108 5.65009L54.6708 6.06109C54.9868 6.09009 55.1158 6.50309 54.8758 6.72109L51.4178 9.86309L52.4538 14.5371C52.5258 14.8611 52.1898 15.1171 51.9188 14.9441L47.9998 12.4671L44.0818 14.9441C43.8098 15.1161 43.4748 14.8611 43.5468 14.5371L44.5828 9.86309L41.1238 6.72109C40.8838 6.50309 41.0118 6.08909 41.3288 6.06109L45.8888 5.65009L47.6688 1.23009C47.6938 1.16249 47.739 1.10418 47.7981 1.063C47.8573 1.02183 47.9277 0.999756 47.9998 0.999756C48.0719 0.999756 48.1422 1.02183 48.2014 1.063C48.2606 1.10418 48.3057 1.16249 48.3308 1.23009Z" fill="#CB11AB" stroke="#CB11AB"/>
<path id="Vector_2" d="M88.3308 1.23009L90.1118 5.65009L94.6708 6.06109C94.9868 6.09009 95.1158 6.50309 94.8758 6.72109L91.4178 9.86309L92.4538 14.5371C92.5258 14.8611 92.1898 15.1171 91.9178 14.9441L87.9998 12.4671L84.0818 14.9441C83.8098 15.1161 83.4748 14.8611 83.5468 14.5371L84.5828 9.86309L81.1248 6.72109C80.8848 6.50309 81.0118 6.08909 81.3288 6.06109L85.8878 5.65009L87.6688 1.23009C87.6938 1.16249 87.739 1.10418 87.7981 1.063C87.8573 1.02183 87.9277 0.999756 87.9998 0.999756C88.0719 0.999756 88.1422 1.02183 88.2014 1.063C88.2606 1.10418 88.3057 1.16249 88.3308 1.23009Z" fill="#D5D5D5" stroke="#D5D5D5"/>
</g>
</svg>
