<svg width="25" height="25" viewBox="0 0 25 25" fill="none" xmlns="http://www.w3.org/2000/svg">
<g id="image" clip-path="url(#clip0_78_32)">
<path id="Vector" fill-rule="evenodd" clip-rule="evenodd" d="M9.33123 15.085C9.40939 15.3052 9.56221 15.4911 9.76315 15.6104C9.9641 15.7297 10.2005 15.7748 10.4312 15.738L23.1972 13.702C23.3989 13.6698 23.5858 13.5766 23.7329 13.435C23.8801 13.2934 23.9803 13.1102 24.0202 12.91L25.3752 6.11797C25.404 5.97426 25.4008 5.82599 25.3659 5.68365C25.331 5.54132 25.2652 5.40839 25.1732 5.29428C25.0813 5.18018 24.9653 5.08769 24.8337 5.02335C24.702 4.95901 24.5578 4.9244 24.4112 4.92197L7.05123 4.64197C6.88977 4.63942 6.73009 4.676 6.58585 4.74859C6.44161 4.82118 6.31709 4.92763 6.22294 5.05882C6.1288 5.19002 6.06782 5.34206 6.04523 5.50195C6.02264 5.66185 6.03911 5.82483 6.09323 5.97697L9.33123 15.085ZM10.1352 23.271C10.4407 23.271 10.7431 23.2108 11.0253 23.0939C11.3076 22.977 11.564 22.8057 11.78 22.5897C11.9959 22.3737 12.1673 22.1173 12.2842 21.8351C12.4011 21.5529 12.4612 21.2504 12.4612 20.945C12.4612 20.6395 12.4011 20.3371 12.2842 20.0548C12.1673 19.7726 11.9959 19.5162 11.78 19.3002C11.564 19.0843 11.3076 18.9129 11.0253 18.796C10.7431 18.6791 10.4407 18.619 10.1352 18.619C9.51833 18.619 8.92671 18.864 8.4905 19.3002C8.05429 19.7365 7.80923 20.3281 7.80923 20.945C7.80923 21.5619 8.05429 22.1535 8.4905 22.5897C8.92671 23.0259 9.51833 23.271 10.1352 23.271ZM21.7662 23.271C22.0717 23.271 22.3741 23.2108 22.6563 23.0939C22.9386 22.977 23.195 22.8057 23.411 22.5897C23.6269 22.3737 23.7983 22.1173 23.9152 21.8351C24.0321 21.5529 24.0922 21.2504 24.0922 20.945C24.0922 20.6395 24.0321 20.3371 23.9152 20.0548C23.7983 19.7726 23.6269 19.5162 23.411 19.3002C23.195 19.0843 22.9386 18.9129 22.6563 18.796C22.3741 18.6791 22.0717 18.619 21.7662 18.619C21.1493 18.619 20.5577 18.864 20.1215 19.3002C19.6853 19.7365 19.4402 20.3281 19.4402 20.945C19.4402 21.5619 19.6853 22.1535 20.1215 22.5897C20.5577 23.0259 21.1493 23.271 21.7662 23.271Z" fill="white"/>
<path id="Vector_2" d="M5.9784 1.11892H1.2684C1.0922 1.11203 0.916415 1.14079 0.751591 1.20347C0.586767 1.26615 0.436294 1.36146 0.30919 1.48369C0.182087 1.60592 0.08097 1.75256 0.0118994 1.91481C-0.0571713 2.07706 -0.0927734 2.25158 -0.0927734 2.42792C-0.0927734 2.60426 -0.0571713 2.77878 0.0118994 2.94103C0.08097 3.10328 0.182087 3.24992 0.30919 3.37215C0.436294 3.49438 0.586767 3.58969 0.751591 3.65237C0.916415 3.71505 1.0922 3.74381 1.2684 3.73692H4.6054C4.81322 3.73685 5.01589 3.80153 5.18525 3.92196C5.35461 4.0424 5.48224 4.2126 5.5504 4.40892L6.4924 7.11892L9.1594 5.81892L7.8444 2.40092C7.69938 2.02388 7.44358 1.6996 7.11067 1.47076C6.77777 1.24192 6.38237 1.11926 5.9784 1.11892Z" fill="white"/>
</g>
<defs>
<clipPath id="clip0_78_32">
<rect width="26" height="24" fill="white" transform="translate(-0.190674 0.218994)"/>
</clipPath>
</defs>
</svg>
